<svg width="16" height="16" viewBox="0 0 16 16" fill="none" xmlns="http://www.w3.org/2000/svg">
<path d="M13.25 2H2.75C2.55109 2 2.36032 2.07902 2.21967 2.21967C2.07902 2.36032 2 2.55109 2 2.75V13.25C2 13.4489 2.07902 13.6397 2.21967 13.7803C2.36032 13.921 2.55109 14 2.75 14H13.25C13.4489 14 13.6397 13.921 13.7803 13.7803C13.921 13.6397 14 13.4489 14 13.25V2.75C14 2.55109 13.921 2.36032 13.7803 2.21967C13.6397 2.07902 13.4489 2 13.25 2Z" stroke="#424242" stroke-width="1.1"/>
<path d="M6.30078 9.99858V6.0009C6.30078 5.95212 9.80078 7.9045 9.80078 7.95261C9.80078 8.00005 6.30078 10.0614 6.30078 9.99858Z" fill="#424242" stroke="#424242" stroke-width="1.2"/>
</svg>
