<svg width="24" height="24" viewBox="0 0 24 24" fill="none" xmlns="http://www.w3.org/2000/svg">
<path d="M11.3977 12.4084L9.01117 14.7825C8.86488 14.9264 8.68833 15.0358 8.49439 15.1028C8.30044 15.1697 8.094 15.1925 7.89012 15.1695C6.2142 14.9835 4.67333 14.162 3.58458 12.8741C2.49584 11.5862 1.94206 9.92987 2.03719 8.24597C2.13232 6.56206 2.86913 4.97868 4.096 3.82165C5.32287 2.66463 6.94646 2.02198 8.63267 2.02595L21.8134 2.07794C21.8076 3.36841 21.2896 4.60375 20.3735 5.51238C19.4573 6.42101 18.2179 6.92858 16.9277 6.92349L8.53002 6.89036C8.39502 6.88993 8.26292 6.92957 8.15046 7.00428C8.038 7.07899 7.95023 7.1854 7.89828 7.31003C7.84632 7.43466 7.83251 7.57191 7.8586 7.7044C7.88468 7.83689 7.94949 7.95866 8.04481 8.05428L11.4015 11.4412C11.465 11.5049 11.5152 11.5804 11.5494 11.6636C11.5835 11.7467 11.6009 11.8357 11.6006 11.9256C11.6002 12.0155 11.5821 12.1044 11.5473 12.1873C11.5125 12.2701 11.4617 12.3453 11.3977 12.4084Z" fill="white"/>
<path d="M20.0774 10.5806C20.996 11.508 21.6195 12.6872 21.8688 13.9693C22.1182 15.2514 21.9823 16.5787 21.4784 17.7835C20.9744 18.9882 20.125 20.0164 19.0376 20.7379C17.9501 21.4594 16.6734 21.8419 15.3688 21.8371L2.17456 21.7851C2.18043 20.4917 2.69881 19.2536 3.61584 18.3427C4.53286 17.4318 5.77353 16.9225 7.06531 16.9269L15.4658 16.96C15.5981 16.9577 15.7268 16.917 15.8364 16.8429C15.946 16.7688 16.0317 16.6643 16.0832 16.5423C16.1346 16.4203 16.1495 16.286 16.1262 16.1557C16.1028 16.0253 16.0421 15.9046 15.9515 15.8081L12.5914 12.4029C12.4638 12.2737 12.3926 12.0991 12.3933 11.9175C12.3941 11.7358 12.4667 11.5619 12.5952 11.4337L14.99 9.05488C15.1362 8.91018 15.3128 8.8 15.5069 8.7324C15.7011 8.6648 15.9079 8.64148 16.1122 8.66415C17.6148 8.82719 19.0152 9.50405 20.0774 10.5806Z" fill="white"/>
</svg>
