<svg width="24" height="24" viewBox="0 0 24 24" fill="none" xmlns="http://www.w3.org/2000/svg">
<path d="M11.4578 11.2487L8.80137 13.6039C8.63966 13.7469 8.44396 13.856 8.22861 13.9232C8.01327 13.9903 7.78373 14.0139 7.55679 13.9921C5.69004 13.8145 3.97096 13.0086 2.75322 11.7402C1.53546 10.4717 0.911648 8.83725 1.01011 7.17298C1.10857 5.5087 1.92181 3.9412 3.28254 2.79296C4.64326 1.64472 6.44798 1.00307 8.3254 1H23C23 1.63133 22.8599 2.25647 22.5878 2.83974C22.3156 3.42301 21.9167 3.95298 21.4138 4.3994C20.9108 4.84581 20.3138 5.19993 19.6567 5.44153C18.9997 5.68312 18.2955 5.80747 17.5842 5.80747H8.23858C8.09097 5.81023 7.94744 5.851 7.82542 5.9248C7.70341 5.99861 7.60818 6.10229 7.5513 6.22324C7.49441 6.34418 7.47832 6.4772 7.50499 6.6061C7.53165 6.73501 7.59993 6.85427 7.7015 6.94939L11.4578 10.2952C11.5996 10.4219 11.6792 10.5934 11.6792 10.7719C11.6792 10.9506 11.5996 11.122 11.4578 11.2487Z" fill="white"/>
<path d="M20.8391 11.8787C21.8691 12.7881 22.5715 13.9488 22.857 15.2134C23.1425 16.4779 22.9984 17.7893 22.4429 18.981C21.8875 20.1727 20.9457 21.191 19.7372 21.9065C18.5287 22.6221 17.1079 23.0027 15.6554 23H1.00003C0.997495 22.3678 1.13565 21.7414 1.40656 21.1568C1.67748 20.5722 2.07581 20.0409 2.57868 19.5933C3.08156 19.1457 3.67906 18.7908 4.33688 18.5489C4.99469 18.307 5.69986 18.1828 6.41188 18.1836H15.7261C15.8735 18.1808 16.0168 18.1401 16.1387 18.0664C16.2605 17.9926 16.3556 17.8891 16.4124 17.7683C16.4692 17.6475 16.4852 17.5146 16.4587 17.3859C16.432 17.2571 16.3639 17.138 16.2624 17.0429L12.5303 13.7037C12.3887 13.5771 12.3092 13.4059 12.3092 13.2275C12.3092 13.0491 12.3887 12.8779 12.5303 12.7513L15.18 10.3958C15.342 10.2528 15.538 10.1437 15.7537 10.0766C15.9693 10.0095 16.1991 9.98604 16.4262 10.008C18.0954 10.1635 19.6535 10.824 20.8391 11.8787Z" fill="white"/>
</svg>
