<svg width="24" height="24" viewBox="0 0 24 24" fill="none" xmlns="http://www.w3.org/2000/svg">
<path d="M11.3281 12.4404L8.70498 15.0498C8.54419 15.208 8.35013 15.3283 8.13696 15.4019C7.92379 15.4755 7.69688 15.5005 7.47279 15.4753C5.6307 15.2708 3.93706 14.3678 2.74037 12.9522C1.54368 11.5366 0.934988 9.71609 1.03955 7.86523C1.14412 6.01438 1.95398 4.27401 3.30249 3.00226C4.651 1.73052 6.43556 1.02416 8.28895 1.02853L22.7766 1.08567C22.7701 2.50409 22.2008 3.8619 21.1938 4.86062C20.1868 5.85934 18.8245 6.41723 17.4064 6.41164L8.17613 6.37523C8.02774 6.37475 7.88255 6.41832 7.75894 6.50044C7.63533 6.58255 7.53886 6.69951 7.48175 6.8365C7.42465 6.97349 7.40947 7.12435 7.43814 7.26998C7.46681 7.4156 7.53804 7.54944 7.64282 7.65454L11.3323 11.3773C11.4021 11.4473 11.4573 11.5303 11.4948 11.6217C11.5324 11.713 11.5515 11.8109 11.5511 11.9097C11.5507 12.0085 11.5308 12.1062 11.4926 12.1973C11.4543 12.2884 11.3984 12.371 11.3281 12.4404Z" fill="white"/>
<path d="M20.8687 10.4292C21.8785 11.4485 22.5637 12.7447 22.8378 14.1538C23.1119 15.563 22.9625 17.0219 22.4086 18.3462C21.8547 19.6704 20.9211 20.8004 19.7258 21.5935C18.5305 22.3866 17.1272 22.807 15.6933 22.8017L1.19089 22.7445C1.19734 21.3229 1.76712 19.9621 2.77506 18.9608C3.78301 17.9596 5.14669 17.3999 6.56654 17.4046L15.8 17.441C15.9453 17.4385 16.0868 17.3938 16.2073 17.3123C16.3277 17.2309 16.4219 17.1161 16.4785 16.982C16.535 16.8479 16.5514 16.7002 16.5257 16.557C16.5001 16.4137 16.4334 16.281 16.3338 16.175L12.6405 12.4321C12.5003 12.2901 12.422 12.0983 12.4228 11.8986C12.4236 11.6989 12.5034 11.5077 12.6447 11.3669L15.2769 8.75217C15.4376 8.59312 15.6317 8.47202 15.8451 8.39772C16.0585 8.32341 16.2858 8.29778 16.5104 8.3227C18.162 8.5019 19.7013 9.24588 20.8687 10.4292Z" fill="white"/>
</svg>
