<svg width="24" height="24" viewBox="0 0 24 24" fill="none" xmlns="http://www.w3.org/2000/svg">
<path d="M11.4085 12.6138L8.51059 15.5125C8.33417 15.6885 8.12068 15.8227 7.88576 15.9054C7.65084 15.9881 7.40043 16.0171 7.15286 15.9903C5.11641 15.7717 3.24105 14.7798 1.9126 13.2187C0.58414 11.6575 -0.0963842 9.64584 0.0110263 7.5975C0.118437 5.54916 1.00561 3.61993 2.49004 2.20672C3.97447 0.793502 5.94325 0.00377373 7.99135 0H24C24 0.777016 23.8472 1.54642 23.5503 2.26429C23.2534 2.98216 22.8182 3.63443 22.2696 4.18387C21.7209 4.7333 21.0696 5.16914 20.3528 5.46649C19.636 5.76384 18.8678 5.91688 18.0919 5.91688H7.89663C7.7356 5.92028 7.57902 5.97045 7.44591 6.06129C7.31281 6.15213 7.20892 6.27974 7.14687 6.4286C7.08481 6.57745 7.06726 6.74116 7.09635 6.89981C7.12544 7.05847 7.19992 7.20525 7.31073 7.32232L11.4085 11.4402C11.5632 11.5962 11.65 11.8072 11.65 12.027C11.65 12.2469 11.5632 12.4578 11.4085 12.6138Z" fill="white"/>
<path d="M21.6427 10.3122C22.7663 11.4315 23.5325 12.8601 23.844 14.4165C24.1555 15.9728 23.9983 17.5868 23.3923 19.0535C22.7864 20.5202 21.759 21.7735 20.4406 22.6542C19.1222 23.5349 17.5723 24.0033 15.9877 24H3.74915e-05C-0.0027322 23.2219 0.147983 22.451 0.443524 21.7315C0.739066 21.0119 1.17361 20.358 1.7222 19.8071C2.27079 19.2563 2.92261 18.8195 3.64023 18.5217C4.35785 18.224 5.12712 18.0712 5.90387 18.0721H16.0648C16.2256 18.0687 16.382 18.0186 16.5149 17.9279C16.6478 17.8371 16.7516 17.7097 16.8135 17.561C16.8755 17.4123 16.893 17.2488 16.864 17.0903C16.8349 16.9318 16.7606 16.7852 16.6499 16.6682L12.5785 12.5584C12.424 12.4026 12.3373 12.1919 12.3373 11.9723C12.3373 11.7527 12.424 11.542 12.5785 11.3862L15.4691 8.48715C15.6458 8.31108 15.8596 8.17683 16.0949 8.09424C16.3301 8.01165 16.5808 7.98281 16.8286 8.00983C18.6495 8.2012 20.3493 9.01413 21.6427 10.3122Z" fill="white"/>
</svg>
