<svg width="16" height="16" viewBox="0 0 16 16" fill="none" xmlns="http://www.w3.org/2000/svg">
<path d="M7.65496 8.35879L5.96451 10.0499C5.8616 10.1525 5.73706 10.2309 5.60003 10.2791C5.46299 10.3273 5.31691 10.3443 5.1725 10.3286C3.98457 10.2011 2.89061 9.62245 2.11568 8.71168C1.34075 7.80091 0.943776 6.62731 1.00643 5.43233C1.06909 4.23734 1.58661 3.11184 2.45252 2.28738C3.31844 1.46292 4.46689 1.0022 5.66162 1H15C15 1.45331 14.9109 1.90217 14.7377 2.32097C14.5645 2.73977 14.3106 3.1203 13.9906 3.44084C13.6706 3.76137 13.2906 4.01564 12.8725 4.18911C12.4544 4.36258 12.0062 4.45187 11.5536 4.45187H5.60637C5.51243 4.45385 5.42109 4.48312 5.34345 4.53611C5.26581 4.58911 5.2052 4.66355 5.16901 4.7504C5.13281 4.83724 5.12257 4.93274 5.13954 5.0253C5.15651 5.11786 5.19995 5.20349 5.26459 5.27179L7.65496 7.67415C7.74519 7.76516 7.79583 7.88821 7.79583 8.01647C7.79583 8.14473 7.74519 8.26778 7.65496 8.35879Z" fill="#c5c5c5" />
<path d="M13.6249 7.01298C14.2803 7.666 14.7273 8.49941 14.909 9.40738C15.0907 10.3154 14.999 11.2569 14.6455 12.1126C14.292 12.9683 13.6927 13.6994 12.9237 14.2132C12.1546 14.727 11.2505 15.0003 10.3261 14.9983H1.00002C0.998406 14.5444 1.08632 14.0947 1.25872 13.6749C1.43112 13.2551 1.68461 12.8736 2.00462 12.5523C2.32463 12.2309 2.70486 11.9761 3.12347 11.8024C3.54208 11.6287 3.99082 11.5395 4.44392 11.5401H10.3711C10.4649 11.5381 10.5561 11.5088 10.6337 11.4559C10.7112 11.403 10.7717 11.3286 10.8079 11.2419C10.844 11.1551 10.8543 11.0597 10.8373 10.9673C10.8204 10.8748 10.777 10.7893 10.7124 10.721L8.33747 8.32339C8.24736 8.23249 8.19678 8.10957 8.19678 7.98146C8.19678 7.85334 8.24736 7.73043 8.33747 7.63952L10.0237 5.94826C10.1267 5.84554 10.2515 5.76723 10.3887 5.71904C10.5259 5.67086 10.6721 5.65404 10.8167 5.6698C11.8789 5.78144 12.8704 6.2557 13.6249 7.01298Z" fill="#c5c5c5" />
</svg>
